<?xml version="1.0" encoding="UTF-8" standalone="no"?>
<!-- Created with Inkscape (http://www.inkscape.org/) -->

<svg
   xmlns:dc="http://purl.org/dc/elements/1.1/"
   xmlns:cc="http://creativecommons.org/ns#"
   xmlns:rdf="http://www.w3.org/1999/02/22-rdf-syntax-ns#"
   xmlns:svg="http://www.w3.org/2000/svg"
   xmlns="http://www.w3.org/2000/svg"
   xmlns:sodipodi="http://sodipodi.sourceforge.net/DTD/sodipodi-0.dtd"
   xmlns:inkscape="http://www.inkscape.org/namespaces/inkscape"
   width="210mm"
   height="297mm"
   viewBox="0 0 210 297"
   version="1.1"
   id="svg8"
   inkscape:version="0.92.3 (2405546, 2018-03-11)"
   sodipodi:docname="arte.svg">
  <defs
     id="defs2" />
  <sodipodi:namedview
     id="base"
     pagecolor="#ffffff"
     bordercolor="#666666"
     borderopacity="1.0"
     inkscape:pageopacity="0.0"
     inkscape:pageshadow="2"
     inkscape:zoom="1.979899"
     inkscape:cx="340.36124"
     inkscape:cy="528.72941"
     inkscape:document-units="mm"
     inkscape:current-layer="layer1"
     showgrid="false"
     inkscape:window-width="1366"
     inkscape:window-height="718"
     inkscape:window-x="0"
     inkscape:window-y="22"
     inkscape:window-maximized="1"
     showguides="true"
     inkscape:guide-bbox="true">
    <sodipodi:guide
       position="20.221726,141.07962"
       orientation="1,0"
       id="guide883"
       inkscape:locked="false" />
  </sodipodi:namedview>
  <metadata
     id="metadata5">
    <rdf:RDF>
      <cc:Work
         rdf:about="">
        <dc:format>image/svg+xml</dc:format>
        <dc:type
           rdf:resource="http://purl.org/dc/dcmitype/StillImage" />
        <dc:title></dc:title>
      </cc:Work>
    </rdf:RDF>
  </metadata>
  <g
     inkscape:label="Layer 1"
     inkscape:groupmode="layer"
     id="layer1">
    <path
       style="opacity:1;fill:#ffcc00;stroke:none;stroke-width:1.66700065;stroke-linecap:round;stroke-linejoin:round;stroke-miterlimit:4;stroke-dasharray:none"
       d="m 56.130674,147.22909 a 9.4868745,9.4868745 0 0 0 -2.067496,0.83753 l 0.721439,2.69245 a 6.8035712,6.8035712 0 0 1 2.040612,-0.93786 6.8035712,6.8035712 0 0 1 7.678883,3.22497 l 2.650019,-0.71007 a 9.4868745,9.4868745 0 0 0 -11.023457,-5.10702 z m -6.112115,13.22035 a 9.4868745,9.4868745 0 0 0 11.022957,5.10716 9.4868745,9.4868745 0 0 0 2.067999,-0.83767 l -0.72144,-2.69244 a 6.8035712,6.8035712 0 0 1 -2.041115,0.93799 6.8035712,6.8035712 0 0 1 -7.678382,-3.22511 z"
       id="circle817"
       inkscape:connector-curvature="0"
       inkscape:export-xdpi="39.292622"
       inkscape:export-ydpi="39.292622"
       inkscape:export-filename="/home/roger/Seminario_V/seminario/static/logo.png" />
    <text
       id="text841"
       y="161.89241"
       x="53.461849"
       style="font-style:normal;font-weight:normal;font-size:15.53099918px;line-height:125%;font-family:sans-serif;letter-spacing:0px;word-spacing:0px;fill:#4d4d4d;fill-opacity:1;stroke:none;stroke-width:0.38827497px;stroke-linecap:butt;stroke-linejoin:miter;stroke-opacity:1;"
       xml:space="preserve"
       inkscape:export-xdpi="39.292622"
       inkscape:export-ydpi="39.292622"
       inkscape:export-filename="/home/roger/Seminario_V/seminario/static/logo.png"><tspan
         style="stroke-width:0.38827497px;fill:#4d4d4d;-inkscape-font-specification:cmsy10;font-family:cmsy10;font-weight:normal;font-style:normal;font-stretch:normal;font-variant:normal"
         y="161.89241"
         x="53.461849"
         id="tspan839"
         sodipodi:role="line">S</tspan></text>
    <circle
       r="2.7984624"
       cy="156.39278"
       cx="58.586346"
       id="circle819"
       style="opacity:1;fill:#4d4d4d;stroke:none;stroke-width:0.49173611;stroke-linecap:round;stroke-linejoin:round;stroke-miterlimit:4;stroke-dasharray:none"
       inkscape:export-xdpi="39.292622"
       inkscape:export-ydpi="39.292622"
       inkscape:export-filename="/home/roger/Seminario_V/seminario/static/logo.png" />
    <text
       xml:space="preserve"
       style="font-style:normal;font-weight:normal;font-size:18.3268795px;line-height:125%;font-family:sans-serif;letter-spacing:0px;word-spacing:0px;fill:#1a1a1a;fill-opacity:1;stroke:none;stroke-width:0.45817196px;stroke-linecap:butt;stroke-linejoin:miter;stroke-opacity:1"
       x="65.2136"
       y="162.0858"
       id="text837"
       inkscape:export-xdpi="39.292622"
       inkscape:export-ydpi="39.292622"
       inkscape:export-filename="/home/roger/Seminario_V/seminario/static/logo.png"><tspan
         sodipodi:role="line"
         id="tspan835"
         x="65.2136"
         y="162.0858"
         style="font-style:normal;font-variant:normal;font-weight:bold;font-stretch:normal;font-family:Sawasdee;-inkscape-font-specification:'Sawasdee Bold';fill:#1a1a1a;stroke-width:0.45817196px">iscope</tspan></text>
    <path
       inkscape:connector-curvature="0"
       id="path881"
       d="m 17.388114,155.26108 a 9.4868745,9.4868745 0 0 0 -2.067496,0.83753 l 0.721439,2.69245 a 6.8035712,6.8035712 0 0 1 2.040612,-0.93786 6.8035712,6.8035712 0 0 1 7.678883,3.22497 l 2.650019,-0.71007 a 9.4868745,9.4868745 0 0 0 -11.023457,-5.10702 z m -6.112115,13.22035 a 9.4868745,9.4868745 0 0 0 11.022957,5.10716 9.4868745,9.4868745 0 0 0 2.067999,-0.83767 l -0.72144,-2.69244 a 6.8035712,6.8035712 0 0 1 -2.041115,0.93799 6.8035712,6.8035712 0 0 1 -7.678382,-3.22511 z"
       style="opacity:1;fill:#cccccc;stroke:none;stroke-width:1.66700065;stroke-linecap:round;stroke-linejoin:round;stroke-miterlimit:4;stroke-dasharray:none" />
  </g>
</svg>
